# xmcd
#
# Track frame offsets: 
#        150
#        12696
#        25931
#        40774
#        54016
#        71520
#        85818
#        99115
#        114749
#        127531
#        144281
#
# Disc length: 2147 seconds
#
# Revision: 0
# Processed by: cddbd v1.5.2PL0 Copyright (c) Steve Scherf et al.
# Submitted via: ExactAudioCopy v1.1
#
DISCID=7d08610b
DTITLE=JJ Heller - Sound of a Living Heart
DYEAR=2015
DGENRE=Christian Rock
TTITLE0=Let Down Your Guard
TTITLE1=The Well
TTITLE2=Fully Known
TTITLE3=Meant To Be
TTITLE4=Father-Daughter Dance
TTITLE5=This Year (Happy New Year)
TTITLE6=Holy Ground
TTITLE7=Daylight
TTITLE8=Scarlet Thread
TTITLE9=Silence
TTITLE10=Sound of a Living Heart
EXTD=
EXTT0=
EXTT1=
EXTT2=
EXTT3=
EXTT4=
EXTT5=
EXTT6=
EXTT7=
EXTT8=
EXTT9=
EXTT10=
PLAYORDER=
